<svg xmlns="http://www.w3.org/2000/svg">
  <symbol id="x-icon" viewBox="0 0 24 24">
    <path d="M 15.237 0 L 18.204 0 L 11.722 7.413 L 19.347 17.5 L 13.377 17.5 L 8.701 11.382 L 3.351 17.5 L 0.382 17.5 L 7.315 9.571 L 0 0 L 6.122 0 L 10.349 5.592 Z M 14.196 15.723 L 15.84 15.723 L 5.229 1.683 L 3.465 1.683 Z" fill="currentColor"></path>
  </symbol>
  <symbol id="github-icon" viewBox="0 0 24 24">
    <path d="M 16.65 0 L 1.35 0 C 0.604 0 0 0.604 0 1.35 L 0 16.65 C 0 17.396 0.604 18 1.35 18 L 16.65 18 C 17.396 18 18 17.396 18 16.65 L 18 1.35 C 18 0.604 17.396 0 16.65 0 Z M 5.4 15.3 L 2.7 15.3 L 2.7 7.2 L 5.4 7.2 Z M 4.05 5.625 C 3.186 5.6 2.504 4.885 2.52 4.021 C 2.537 3.157 3.246 2.468 4.11 2.476 C 4.973 2.484 5.67 3.186 5.67 4.05 C 5.655 4.931 4.931 5.635 4.05 5.625 Z M 15.3 15.3 L 12.6 15.3 L 12.6 11.034 C 12.6 9.756 12.06 9.297 11.358 9.297 C 10.942 9.324 10.555 9.517 10.281 9.831 C 10.007 10.145 9.87 10.555 9.9 10.971 C 9.896 11.013 9.896 11.055 9.9 11.097 L 9.9 15.3 L 7.2 15.3 L 7.2 7.2 L 9.81 7.2 L 9.81 8.37 C 10.345 7.556 11.266 7.078 12.24 7.11 C 13.635 7.11 15.264 7.884 15.264 10.404 Z" fill="currentColor"></path>
  </symbol>
  <symbol id="discord-icon" viewBox="0 0 24 24">
    <path d="M 7.584 19.706 L 7.584 13.056 L 5.52 13.056 L 5.52 10 L 7.584 10 L 7.584 8.683 C 7.584 5.279 9.124 3.703 12.464 3.703 C 13.096 3.703 14.188 3.827 14.636 3.951 L 14.636 6.72 C 14.251 6.691 13.866 6.679 13.48 6.684 C 11.84 6.684 11.208 7.304 11.208 8.92 L 11.208 10 L 14.476 10 L 13.916 13.056 L 11.212 13.056 L 11.212 19.928 C 16.164 19.328 20 15.112 20 10 C 20 4.477 15.523 0 10 0 C 4.477 0 0 4.477 0 10 C 0 14.69 3.228 18.625 7.584 19.706 Z" fill="currentColor"></path>
  </symbol>
  <symbol id="bluesky-icon" viewBox="0 0 24 24">
    <path d="M 9.5 1.712 C 12.037 1.712 12.337 1.722 13.339 1.767 C 13.941 1.774 14.537 1.885 15.102 2.094 C 15.515 2.247 15.888 2.489 16.195 2.805 C 16.511 3.112 16.753 3.485 16.905 3.898 C 17.115 4.462 17.225 5.058 17.233 5.661 C 17.279 6.663 17.288 6.964 17.288 9.5 C 17.288 12.037 17.278 12.337 17.233 13.339 C 17.226 13.941 17.115 14.537 16.906 15.102 C 16.586 15.931 15.931 16.586 15.102 16.906 C 14.538 17.115 13.942 17.226 13.339 17.233 C 12.337 17.279 12.036 17.288 9.5 17.288 C 6.963 17.288 6.663 17.278 5.661 17.233 C 5.059 17.226 4.462 17.115 3.897 16.906 C 3.484 16.754 3.111 16.511 2.805 16.195 C 2.49 15.888 2.247 15.515 2.095 15.102 C 1.886 14.537 1.775 13.941 1.767 13.339 C 1.721 12.337 1.712 12.036 1.712 9.5 C 1.712 6.963 1.722 6.663 1.767 5.661 C 1.774 5.059 1.885 4.463 2.094 3.898 C 2.247 3.485 2.489 3.112 2.805 2.805 C 3.112 2.489 3.485 2.247 3.898 2.095 C 4.463 1.886 5.059 1.775 5.661 1.767 C 6.663 1.721 6.964 1.712 9.5 1.712 Z M 9.5 0 C 6.92 0 6.596 0.011 5.583 0.057 C 4.795 0.073 4.015 0.222 3.277 0.498 C 2.643 0.737 2.069 1.111 1.594 1.595 C 1.111 2.07 0.737 2.644 0.498 3.278 C 0.222 4.016 0.073 4.795 0.058 5.583 C 0.01 6.596 0 6.92 0 9.5 C 0 12.08 0.011 12.403 0.057 13.417 C 0.073 14.205 0.222 14.984 0.498 15.723 C 0.737 16.357 1.111 16.931 1.595 17.406 C 2.07 17.889 2.644 18.263 3.278 18.502 C 4.016 18.778 4.795 18.927 5.583 18.942 C 6.596 18.99 6.92 19 9.5 19 C 12.08 19 12.403 18.989 13.417 18.943 C 14.205 18.927 14.985 18.778 15.723 18.502 C 17 18.008 18.009 16.999 18.502 15.722 C 18.778 14.984 18.927 14.205 18.942 13.417 C 18.99 12.403 19 12.08 19 9.5 C 19 6.92 18.989 6.596 18.943 5.583 C 18.927 4.795 18.778 4.015 18.502 3.277 C 18.263 2.643 17.889 2.069 17.405 1.594 C 16.93 1.111 16.356 0.737 15.722 0.498 C 14.984 0.222 14.205 0.073 13.417 0.058 C 12.403 0.01 12.08 0 9.5 0 Z M 9.5 4.621 C 6.805 4.621 4.621 6.805 4.621 9.5 C 4.621 12.195 6.805 14.379 9.5 14.379 C 12.195 14.379 14.379 12.195 14.379 9.5 C 14.379 6.805 12.195 4.621 9.5 4.621 Z M 9.5 12.667 C 7.751 12.667 6.333 11.249 6.333 9.5 C 6.333 7.751 7.751 6.333 9.5 6.333 C 11.249 6.333 12.667 7.751 12.667 9.5 C 12.667 11.249 11.249 12.667 9.5 12.667 Z M 14.571 3.289 C 13.941 3.289 13.431 3.799 13.431 4.429 C 13.431 5.059 13.941 5.569 14.571 5.569 C 15.201 5.569 15.711 5.059 15.711 4.429 C 15.711 3.799 15.201 3.289 14.571 3.289 Z" fill="currentColor"></path>
  </symbol>
  <symbol id="social-icon" viewBox="0 0 24 24">
    <path d="M 18.704 0.508 C 19.608 0.788 20.319 1.609 20.561 2.655 C 20.998 4.548 21 8.5 21 8.5 C 21 8.5 21 12.452 20.56 14.345 C 20.319 15.391 19.608 16.212 18.704 16.492 C 17.067 17 10.5 17 10.5 17 C 10.5 17 3.933 17 2.296 16.492 C 1.392 16.212 0.681 15.391 0.439 14.345 C 0 12.452 0 8.5 0 8.5 C 0 8.5 0 4.548 0.44 2.655 C 0.681 1.609 1.392 0.788 2.296 0.508 C 3.933 0 10.5 0 10.5 0 C 10.5 0 17.067 0 18.704 0.508 Z M 14.013 8.5 L 8.298 5.2 L 8.298 11.8 L 14.014 8.5 Z" fill="currentColor"></path>
  </symbol>
  <symbol id="documentation-icon" viewBox="0 0 24 24">
    <path d="M 48.565 6.751 C 52.889 6.752 56.543 9.955 57.112 14.241 C 57.68 18.528 54.986 22.572 50.812 23.7 C 46.638 24.828 42.274 22.691 40.606 18.702 C 40.386 18.93 40.163 19.155 39.94 19.378 C 39.08 20.351 38.178 21.262 37.185 22.029 L 37.035 22.143 C 36.834 22.294 36.629 22.439 36.42 22.577 C 36.053 22.819 35.673 23.04 35.282 23.239 L 35.125 23.312 C 35.023 23.357 34.921 23.4 34.818 23.442 C 34.803 23.448 34.785 23.453 34.77 23.46 C 34.735 23.472 34.7 23.486 34.665 23.5 C 34.643 23.509 34.62 23.516 34.598 23.524 C 34.57 23.533 34.542 23.543 34.515 23.554 L 34.445 23.578 L 34.351 23.608 C 34.334 23.615 34.317 23.621 34.299 23.626 L 34.201 23.657 L 34.131 23.677 C 34.078 23.695 34.025 23.711 33.971 23.724 C 33.948 23.732 33.921 23.738 33.897 23.745 L 33.819 23.765 C 33.79 23.775 33.759 23.781 33.729 23.788 L 33.671 23.802 L 33.569 23.824 L 33.511 23.836 C 33.48 23.841 33.451 23.848 33.421 23.854 C 33.399 23.859 33.376 23.864 33.353 23.867 L 33.238 23.887 L 33.204 23.894 L 33.085 23.912 L 33.04 23.919 C 32.999 23.926 32.957 23.931 32.916 23.936 C 32.906 23.936 32.896 23.939 32.885 23.939 C 32.832 23.945 32.78 23.952 32.727 23.957 C 32.659 23.965 32.59 23.972 32.521 23.977 L 32.493 23.977 L 32.321 23.988 C 32.299 23.992 32.274 23.991 32.252 23.991 C 32.209 23.993 32.167 23.997 32.124 23.997 L 31.729 23.997 C 31.693 23.995 31.656 23.993 31.62 23.993 C 29.282 24.075 27.01 23.204 25.326 21.579 C 23.643 19.954 22.691 17.715 22.691 15.375 C 22.694 11.268 25.593 7.733 29.62 6.925 C 33.646 6.118 37.684 8.261 39.271 12.049 C 39.492 11.821 39.715 11.595 39.937 11.373 C 40.798 10.4 41.7 9.489 42.693 8.722 L 42.843 8.608 C 43.043 8.457 43.248 8.312 43.457 8.174 C 43.824 7.932 44.204 7.711 44.596 7.512 L 44.752 7.438 C 44.854 7.394 44.956 7.351 45.06 7.31 L 45.107 7.29 C 45.142 7.278 45.178 7.265 45.213 7.251 C 45.235 7.242 45.258 7.235 45.28 7.227 L 45.363 7.197 L 45.433 7.173 L 45.526 7.143 C 45.543 7.136 45.56 7.13 45.578 7.125 L 45.677 7.094 L 45.747 7.074 C 45.8 7.056 45.853 7.04 45.907 7.027 C 45.93 7.019 45.957 7.013 45.981 7.006 L 46.058 6.986 C 46.087 6.976 46.118 6.97 46.148 6.963 L 46.206 6.949 L 46.308 6.927 C 46.327 6.923 46.348 6.917 46.368 6.914 L 46.456 6.897 C 46.478 6.892 46.501 6.888 46.523 6.884 L 46.64 6.864 L 46.674 6.857 L 46.793 6.839 L 46.838 6.832 C 46.879 6.825 46.921 6.82 46.962 6.814 L 46.993 6.812 C 47.046 6.806 47.098 6.799 47.151 6.794 C 47.221 6.785 47.287 6.78 47.356 6.774 L 47.385 6.774 L 47.557 6.763 C 47.579 6.759 47.604 6.76 47.626 6.76 C 47.669 6.758 47.71 6.754 47.753 6.754 L 48.148 6.754 C 48.185 6.756 48.221 6.758 48.257 6.758 C 48.359 6.754 48.461 6.752 48.563 6.752 Z M 9.6 0.555 C 17.555 0.931 22.358 8.083 20.303 15.622 C 18.769 21.247 14.216 23.762 8.602 23.936 C 5.74 24.026 2.862 23.865 0 23.934 L 0 0.558 Z M 76.93 23.46 C 76.903 23.493 76.873 23.523 76.84 23.549 L 71.893 23.549 C 71.86 23.522 71.83 23.492 71.803 23.459 L 71.803 21.317 L 71.157 22.171 C 68.951 24.441 64.981 24.463 62.442 22.751 C 58.172 19.872 57.981 12.193 61.67 8.778 C 64.17 6.464 68.662 6.064 71.127 8.632 L 71.804 9.572 L 71.804 0 L 76.93 0 Z M 87.6 12.269 C 89.976 3.976 103.761 4.853 104.459 13.539 C 104.509 14.165 104.503 15.181 104.458 15.812 C 104.457 15.822 104.408 15.859 104.403 15.907 C 104.378 16.173 104.359 16.443 104.34 16.709 L 92.379 16.709 C 92.341 18.219 93.281 19.439 94.723 19.816 C 96.238 20.213 98.431 20.106 99.218 18.505 L 104.222 18.505 C 103.262 24.375 94.522 25.245 90.466 22.384 C 87.354 20.188 86.586 15.806 87.6 12.269 Z M 84.825 23.322 C 84.8 23.354 84.771 23.383 84.74 23.409 L 79.924 23.409 C 79.892 23.383 79.863 23.354 79.838 23.322 L 79.838 0 L 84.825 0 Z M 51.917 10.527 C 51.488 10.479 51.054 10.493 50.629 10.569 C 50.581 10.578 50.529 10.586 50.481 10.597 C 50.215 10.652 49.954 10.726 49.699 10.82 C 49.642 10.841 49.585 10.864 49.529 10.887 C 47.589 11.654 45.668 13.477 43.633 15.553 C 42.703 16.503 41.767 17.503 40.823 18.48 C 41.998 21.2 44.645 23.2 47.712 23.2 L 47.712 23.198 C 51.865 23.198 55.764 19.527 55.765 15.374 C 55.765 12.44 54.297 11.081 51.972 10.534 Z M 32.166 7.551 C 28.015 7.551 24.114 11.222 24.113 15.375 C 24.113 18.308 25.581 19.668 27.905 20.215 L 27.961 20.222 C 28.44 20.276 28.924 20.252 29.395 20.152 C 29.721 20.085 30.041 19.988 30.35 19.863 C 32.288 19.096 34.21 17.273 36.244 15.196 L 36.244 15.198 C 37.174 14.248 38.111 13.248 39.056 12.271 C 37.88 9.551 35.232 7.551 32.166 7.551 Z M 71.973 16.171 C 72.254 13.233 70.746 10.873 67.549 11.232 C 63.049 11.739 63.134 19.916 68.419 19.676 C 70.39 19.586 71.789 18.097 71.973 16.172 Z M 10.667 5.439 C 8.956 4.913 7.168 5.16 5.399 5.105 L 5.399 19.329 L 6.113 19.319 C 7.78 19.324 9.443 19.494 11.033 18.892 C 16.679 16.753 16.52 7.242 10.667 5.439 Z M 97.561 10.366 C 96.285 9.863 94.441 10.006 93.385 10.935 C 92.669 11.564 92.389 12.487 92.319 13.419 L 99.365 13.419 C 99.348 12.096 98.834 10.869 97.561 10.366 Z" fill="currentColor" transform="scale(0.2)"></path>
  </symbol>
</svg>